<?xml version="1.0" standalone="no"?><!DOCTYPE svg PUBLIC "-//W3C//DTD SVG 1.1//EN" "http://www.w3.org/Graphics/SVG/1.1/DTD/svg11.dtd"><svg t="1517793238239" class="icon" style="" viewBox="0 0 1024 1024" version="1.1" xmlns="http://www.w3.org/2000/svg" p-id="3046" xmlns:xlink="http://www.w3.org/1999/xlink" width="200" height="200"><defs><style type="text/css"></style></defs><path d="M837.913962 543.485498c-0.706481 0-1.413986-0.05529-2.120467-0.16587l-164.174892-24.796455c-7.74774-1.178492-13.084231-8.413266-11.920073-16.161006 1.178492-7.74774 8.315997-13.111875 16.161006-11.905738l150.134353 22.674964 46.473131-307.545459-528.548035-79.863055-15.287632 101.125058c-1.164158 7.74774-8.413266 12.946006-16.147695 11.920073-7.74774-1.178492-13.084231-8.413266-11.905739-16.161006l17.408099-115.151263c1.164158-7.74774 8.343642-12.986961 16.147695-11.920073l556.614779 84.090678a14.256579 14.256579 0 0 1 9.299951 5.612939 14.252484 14.252484 0 0 1 2.619098 10.548067l-50.715088 335.626538a14.224839 14.224839 0 0 1-5.612939 9.29995 14.168525 14.168525 0 0 1-8.425552 2.771658z" p-id="3047" fill="#222529"></path><path d="M743.081703 527.213912c-0.790439 0-1.594189-0.069624-2.41125-0.207849-7.720095-1.316717-12.917337-8.648759-11.58731-16.383189 10.076055-59.031085 66.460396-99.766362 125.379877-90.867775 7.74774 1.178492 13.084231 8.413266 11.920073 16.161006-1.191803 7.74774-8.440911 13.056586-16.161006 11.905739-43.743453-6.528293-85.642888 23.700897-93.168445 67.596909-1.178492 6.916345-7.180508 11.795159-13.971939 11.795159zM869.391268 295.081703c-0.610236 0-1.219447-0.041979-1.842993-0.124914-25.544915-3.326603-48.1093-16.646328-63.521846-37.533588-16.368855-22.176332-22.966772-51.171741-18.115603-79.557938 1.330027-7.720095 8.60678-12.862047 16.383189-11.58731 7.720095 1.316717 12.917337 8.648759 11.58731 16.383189-3.604076 21.109444 0.998288 41.678276 12.986962 57.894572 10.78356 14.622106 26.528869 23.936391 44.339354 26.26573 7.775385 1.011599 13.2501 8.122482 12.238501 15.897867-0.929688 7.150815-7.027949 12.362391-14.054874 12.362392zM332.082871 215.150047c-5.224887 0-10.520422-0.388053-15.842578-1.191802-7.74774-1.178492-13.084231-8.413266-11.920073-16.161006 1.178492-7.73443 8.440911-12.917337 16.161006-11.920073 42.315133 6.500648 81.48489-22.703633 87.832979-64.768938 1.178492-7.762075 8.440911-12.917337 16.161006-11.920073 7.74774 1.178492 13.084231 8.413266 11.920073 16.161006-7.900299 52.225319-53.014734 89.800886-104.312413 89.800886zM797.165373 759.290831c-69.827955 0-122.483306-27.526133-122.483305-64.034812 0-7.845009 6.348089-14.193098 14.193098-14.193098s14.193098 6.348089 14.193098 14.193098c0 14.539172 36.660214 35.648615 94.097109 35.648616 57.451229 0 94.124754-21.109444 94.124755-35.648616 0-7.845009 6.348089-14.193098 14.193098-14.193098s14.193098 6.348089 14.193098 14.193098c0 36.507655-52.669685 64.034812-122.510951 64.034812z" p-id="3048" fill="#222529"></path><path d="M797.165373 821.842034c-69.827955 0-122.483306-27.526133-122.483305-64.020478 0-7.845009 6.348089-14.193098 14.193098-14.193098s14.193098 6.348089 14.193098 14.193098c0 14.525861 36.660214 35.634281 94.097109 35.634281 57.451229 0 94.124754-21.109444 94.124755-35.634281 0-7.845009 6.348089-14.193098 14.193098-14.193098s14.193098 6.348089 14.193098 14.193098c0 36.493321-52.669685 64.020478-122.510951 64.020478z" p-id="3049" fill="#222529"></path><path d="M797.165373 884.40757c-69.827955 0-122.483306-27.526133-122.483305-64.020477V632.690483c0-7.845009 6.348089-14.193098 14.193098-14.193099s14.193098 6.348089 14.193098 14.193099v187.695586c0 14.525861 36.660214 35.634281 94.097109 35.634281 57.451229 0 94.124754-21.109444 94.124755-35.634281V632.690483c0-7.845009 6.348089-14.193098 14.193098-14.193099s14.193098 6.348089 14.193098 14.193099v187.695586c0 36.494345-52.669685 64.021502-122.510951 64.021501z" p-id="3050" fill="#222529"></path><path d="M797.165373 696.725295c-69.827955 0-122.483306-27.526133-122.483305-64.034812 0-36.494345 52.655351-64.020478 122.483305-64.020478 69.84229 0 122.510951 27.526133 122.510951 64.020478 0 36.507655-52.669685 64.034812-122.510951 64.034812z m0-99.669093c-57.436895 0-94.097109 21.109444-94.097109 35.635305 0 14.539172 36.660214 35.648615 94.097109 35.648615 57.451229 0 94.124754-21.109444 94.124755-35.648615 0-14.526885-36.674548-35.635305-94.124755-35.635305zM224.666037 454.669589c-69.827955 0-122.483306-27.526133-122.483305-64.020478 0-7.845009 6.348089-14.193098 14.193098-14.193098s14.193098 6.348089 14.193098 14.193098c0 14.525861 36.660214 35.634281 94.097109 35.634281 57.451229 0 94.111444-21.109444 94.111444-35.634281 0-7.845009 6.348089-14.193098 14.193098-14.193098s14.193098 6.348089 14.193099 14.193098c0 36.493321-52.669685 64.020478-122.497641 64.020478z" p-id="3051" fill="#222529"></path><path d="M224.666037 517.234102c-69.827955 0-122.483306-27.526133-122.483305-64.020478 0-7.845009 6.348089-14.193098 14.193098-14.193098s14.193098 6.348089 14.193098 14.193098c0 14.525861 36.660214 35.634281 94.097109 35.634281 57.451229 0 94.111444-21.109444 94.111444-35.634281 0-7.845009 6.348089-14.193098 14.193098-14.193098s14.193098 6.348089 14.193099 14.193098c0 36.494345-52.669685 64.020478-122.497641 64.020478z" p-id="3052" fill="#222529"></path><path d="M224.666037 579.799638c-69.827955 0-122.483306-27.526133-122.483305-64.020477 0-7.845009 6.348089-14.193098 14.193098-14.193099s14.193098 6.348089 14.193098 14.193099c0 14.525861 36.660214 35.634281 94.097109 35.634281 57.451229 0 94.111444-21.109444 94.111444-35.634281 0-7.845009 6.348089-14.193098 14.193098-14.193099s14.193098 6.348089 14.193099 14.193099c0 36.494345-52.669685 64.020478-122.497641 64.020477z" p-id="3053" fill="#222529"></path><path d="M224.666037 642.365175c-69.827955 0-122.483306-27.526133-122.483305-64.020478 0-7.845009 6.348089-14.193098 14.193098-14.193098s14.193098 6.348089 14.193098 14.193098c0 14.525861 36.660214 35.634281 94.097109 35.634281 57.451229 0 94.111444-21.109444 94.111444-35.634281 0-7.845009 6.348089-14.193098 14.193098-14.193098s14.193098 6.348089 14.193099 14.193098c0 36.494345-52.669685 64.020478-122.497641 64.020478z" p-id="3054" fill="#222529"></path><path d="M224.666037 704.930712c-69.827955 0-122.483306-27.526133-122.483305-64.020478 0-7.845009 6.348089-14.193098 14.193098-14.193098s14.193098 6.348089 14.193098 14.193098c0 14.525861 36.660214 35.634281 94.097109 35.634281 57.451229 0 94.111444-21.109444 94.111444-35.634281 0-7.845009 6.348089-14.193098 14.193098-14.193098s14.193098 6.348089 14.193099 14.193098c0 36.493321-52.669685 64.020478-122.497641 64.020478z" p-id="3055" fill="#222529"></path><path d="M224.666037 767.495225c-69.827955 0-122.483306-27.526133-122.483305-64.034813 0-7.845009 6.348089-14.193098 14.193098-14.193098s14.193098 6.348089 14.193098 14.193098c0 14.539172 36.660214 35.648615 94.097109 35.648616 57.451229 0 94.111444-21.109444 94.111444-35.648616 0-7.845009 6.348089-14.193098 14.193098-14.193098s14.193098 6.348089 14.193099 14.193098c0 36.508679-52.669685 64.034812-122.497641 64.034813z" p-id="3056" fill="#222529"></path><path d="M224.666037 830.060761c-69.827955 0-122.483306-27.526133-122.483305-64.020478 0-7.845009 6.348089-14.193098 14.193098-14.193098s14.193098 6.348089 14.193098 14.193098c0 14.525861 36.660214 35.634281 94.097109 35.634281 57.451229 0 94.111444-21.109444 94.111444-35.634281 0-7.845009 6.348089-14.193098 14.193098-14.193098s14.193098 6.348089 14.193099 14.193098c0 36.494345-52.669685 64.020478-122.497641 64.020478z" p-id="3057" fill="#222529"></path><path d="M224.666037 892.626298c-69.827955 0-122.483306-27.526133-122.483305-64.034812V327.015662c0-7.845009 6.348089-14.193098 14.193098-14.193098s14.193098 6.348089 14.193098 14.193098v501.575824c0 14.539172 36.660214 35.648615 94.097109 35.648615 57.451229 0 94.111444-21.109444 94.111444-35.648615V327.015662c0-7.845009 6.348089-14.193098 14.193098-14.193098s14.193098 6.348089 14.193099 14.193098v501.575824c0 36.508679-52.669685 64.034812-122.497641 64.034812z" p-id="3058" fill="#222529"></path><path d="M224.666037 391.050474c-69.827955 0-122.483306-27.526133-122.483305-64.034812 0-36.494345 52.655351-64.020478 122.483305-64.020477s122.49764 27.526133 122.497641 64.020477c0 36.508679-52.669685 64.034812-122.497641 64.034812z m0-99.669093c-57.436895 0-94.097109 21.109444-94.097109 35.634281 0 14.539172 36.660214 35.648615 94.097109 35.648616 57.451229 0 94.111444-21.109444 94.111444-35.648616 0-14.524837-36.660214-35.634281-94.111444-35.634281z" p-id="3059" fill="#222529"></path><path d="M510.035164 678.166349c-69.827955 0-122.483306-27.526133-122.483306-64.020477 0-7.845009 6.348089-14.193098 14.193099-14.193099s14.193098 6.348089 14.193098 14.193099c0 14.525861 36.660214 35.635305 94.097109 35.635305 57.451229 0 94.111444-21.109444 94.111444-35.635305 0-7.845009 6.348089-14.193098 14.193098-14.193099s14.193098 6.348089 14.193098 14.193099c0 36.493321-52.669685 64.020478-122.49764 64.020477z" p-id="3060" fill="#222529"></path><path d="M510.035164 740.731886c-69.827955 0-122.483306-27.526133-122.483306-64.020478 0-7.845009 6.348089-14.193098 14.193099-14.193098s14.193098 6.348089 14.193098 14.193098c0 14.525861 36.660214 35.635305 94.097109 35.635305 57.451229 0 94.111444-21.109444 94.111444-35.635305 0-7.845009 6.348089-14.193098 14.193098-14.193098s14.193098 6.348089 14.193098 14.193098c0 36.493321-52.669685 64.020478-122.49764 64.020478z" p-id="3061" fill="#222529"></path><path d="M510.035164 803.296399c-69.827955 0-122.483306-27.526133-122.483306-64.020478 0-7.845009 6.348089-14.193098 14.193099-14.193098s14.193098 6.348089 14.193098 14.193098c0 14.525861 36.660214 35.635305 94.097109 35.635305 57.451229 0 94.111444-21.109444 94.111444-35.635305 0-7.845009 6.348089-14.193098 14.193098-14.193098s14.193098 6.348089 14.193098 14.193098c0 36.494345-52.669685 64.020478-122.49764 64.020478z" p-id="3062" fill="#222529"></path><path d="M510.035164 865.861935c-69.827955 0-122.483306-27.526133-122.483306-64.020477 0-7.845009 6.348089-14.193098 14.193099-14.193099s14.193098 6.348089 14.193098 14.193099c0 14.525861 36.660214 35.635305 94.097109 35.635305 57.451229 0 94.111444-21.109444 94.111444-35.635305 0-7.845009 6.348089-14.193098 14.193098-14.193099s14.193098 6.348089 14.193098 14.193099c0 36.494345-52.669685 64.020478-122.49764 64.020477z" p-id="3063" fill="#222529"></path><path d="M510.035164 928.427472c-69.827955 0-122.483306-27.526133-122.483306-64.020478V550.513446c0-7.845009 6.348089-14.193098 14.193099-14.193098s14.193098 6.348089 14.193098 14.193098v313.893548c0 14.525861 36.660214 35.635305 94.097109 35.635305 57.451229 0 94.111444-21.109444 94.111444-35.635305V550.513446c0-7.845009 6.348089-14.193098 14.193098-14.193098s14.193098 6.348089 14.193098 14.193098v313.893548c0 36.494345-52.669685 64.020478-122.49764 64.020478z" p-id="3064" fill="#222529"></path><path d="M510.035164 614.547235c-69.827955 0-122.483306-27.526133-122.483306-64.034812 0-36.494345 52.655351-64.020478 122.483306-64.020478s122.49764 27.526133 122.49764 64.020478c0 36.508679-52.669685 64.034812-122.49764 64.034812z m0-99.669093c-57.436895 0-94.097109 21.109444-94.097109 35.634281 0 14.539172 36.660214 35.648615 94.097109 35.648615 57.451229 0 94.111444-21.109444 94.111444-35.648615 0-14.524837-36.660214-35.634281-94.111444-35.634281z" p-id="3065" fill="#222529"></path><path d="M580.210216 421.667717a66.276097 66.276097 0 0 1-9.286639-0.651191c-19.182492-2.661078-43.118883-16.604348-58.185356-33.901867-5.156286-5.918057-4.53274-14.886269 1.372007-20.028221 5.877102-5.141952 14.858624-4.546051 20.02822 1.372007 10.436463 11.988673 28.316573 22.731278 40.693299 24.449357 17.921065 2.425584 33.901867-7.374022 35.926088-21.955173 0.970643-7.041259-1.316717-18.032668-32.446926-32.016894-16.313565-7.706785-53.972067-25.502936-48.92636-61.817076 4.172333-30.048987 34.484458-50.840002 67.929672-46.154703 21.262003 2.951861 39.751324 15.980802 48.275169 33.985826 3.339914 7.082215 0.318428 15.55077-6.763786 18.905018-7.151839 3.354248-15.565105 0.318428-18.905019-6.763786-4.463116-9.452509-14.636441-16.355544-26.514534-18.018334-17.89342-2.397939-33.901867 7.374022-35.911754 21.955173-1.302382 9.39722 3.756635 18.448366 32.696754 32.128497 13.153855 5.904747 53.889132 24.213864 48.677556 61.705473-3.785304 27.24866-29.16435 46.805894-58.658391 46.805894z" p-id="3066" fill="#222529"></path><path d="M595.372934 259.211928c-0.651191 0-1.302382-0.041979-1.967907-0.138224-7.762075-1.081223-13.1815-8.246372-12.100277-16.008447l3.076775-22.121043c1.066889-7.762075 8.191083-13.236789 16.008447-12.100277 7.762075 1.081223 13.1815 8.246372 12.100277 16.008448l-3.076775 22.121042c-0.983954 7.095525-7.068904 12.238501-14.04054 12.238501zM569.829043 443.275793c-0.637881 0-1.302382-0.041979-1.954597-0.138224-7.775385-1.066889-13.19481-8.233062-12.113587-15.995137l3.063465-22.121042c1.066889-7.775385 8.163438-13.319724 15.995136-12.113588 7.775385 1.066889 13.19481 8.233062 12.113587 15.995137l-3.063464 22.121042c-0.984978 7.10986-7.068904 12.251812-14.04054 12.251812z" p-id="3067" fill="#222529"></path></svg>