<?xml version="1.0" standalone="no"?><!DOCTYPE svg PUBLIC "-//W3C//DTD SVG 1.1//EN" "http://www.w3.org/Graphics/SVG/1.1/DTD/svg11.dtd"><svg t="1517976471596" class="icon" style="" viewBox="0 0 1024 1024" version="1.1" xmlns="http://www.w3.org/2000/svg" p-id="10632" xmlns:xlink="http://www.w3.org/1999/xlink" width="200" height="200"><defs><style type="text/css"></style></defs><path d="M640.256 656.256c-17.6 0-32 14.4-32 32v192a32 32 0 0 0 64 0v-192a32 32 0 0 0-32-32z m256-224a32 32 0 0 0-32 32v416a32 32 0 0 0 64 0v-416a32 32 0 0 0-32-32z m-448 96a128 128 0 1 0-255.936 0.064 128 128 0 0 0 255.936-0.064z m-191.488 0a63.488 63.488 0 1 1 127.04 0 63.488 63.488 0 0 1-127.04 0z m63.488 192c-105.984 0-192 86.016-192 192h64a128 128 0 0 1 256 0h64c0-105.984-86.016-192-192-192z m587.136-605.696a32.768 32.768 0 0 0-15.872-2.24h-123.264a32 32 0 0 0 0 64h47.616L639.744 352.448 408.832 121.536a32.96 32.96 0 0 0-25.024-9.536 32.832 32.832 0 0 0-24.64 9.472L105.408 375.232a33.152 33.152 0 0 0 46.848 46.848l231.296-231.296 231.104 231.168c6.848 6.912 16 9.92 25.088 9.536a33.024 33.024 0 0 0 25.088-9.536l199.424-199.424v49.728a32 32 0 0 0 64 0v-128a31.808 31.808 0 0 0-20.864-29.696z" fill="#FFC107" p-id="10633"></path></svg>