<?xml version="1.0" standalone="no"?><!DOCTYPE svg PUBLIC "-//W3C//DTD SVG 1.1//EN" "http://www.w3.org/Graphics/SVG/1.1/DTD/svg11.dtd"><svg t="1512152627362" class="icon" style="" viewBox="0 0 1024 1024" version="1.1" xmlns="http://www.w3.org/2000/svg" p-id="3806" xmlns:xlink="http://www.w3.org/1999/xlink" width="30" height="30"><defs><style type="text/css"></style></defs><path d="M161.89318 16.558118c0 43.834344 0 87.276762 0 131.211391-22.268166 0-44.036959 0-65.996087 0 0 22.243607 0 43.988864 0 66.281589 22.237467 0 44.148499 0 65.75868 0 0 22.297842 0 44.046169 0 66.301032-22.248723 0-44.002167 0-65.818031 0 0 21.789259 0 43.057655 0 64.833611 22.025643 0 43.786249 0 65.920362 0 0 22.369473 0 44.231387 0 66.466808-22.182208 0-43.969421 0-65.62872 0 0 22.234397 0 44.091194 0 66.278519 22.196535 0 43.831274 0 65.697281 0 0 21.74014 0 43.137473 0 65.034179-22.089088 0-43.855834 0-65.935712 0 0 22.246677 0 43.991933 0 66.286706 22.12388 0 44.034912 0 65.824171 0 0 22.296819 0 44.043099 0 66.295915-22.192442 0-43.949978 0-65.767889 0 0 21.911032 0 43.307342 0 65.199954 22.146393 0 43.914162 0 65.87022 0 0 22.245653 0 43.989887 0 66.283636-22.242584 0-44.151569 0-65.754586 0 0 22.300912 0 44.049239 0 66.303079 22.246677 0 44.001143 0 66.268286 0 0 43.944861 0 87.376023 0 130.883933 267.020496 0 533.517059 0 800.263309 0 0-329.267189 0-658.291854 0-987.659327C695.624111 16.558118 429.009867 16.558118 161.89318 16.558118zM896.064212 937.781336c-222.292805 0-444.395276 0-666.884556 0 0-21.285792 0-42.526559 0-64.327074 1.867534-0.113587 3.808746-0.332575 5.749958-0.335644 18.656919-0.026606 37.312814-0.048095 55.969733 0.01842 2.666736 0.00921 4.539386-0.215918 4.527107-3.624551-0.072655-20.660552-0.036839-41.321104-0.036839-62.59257-22.157649 0-44.069705 0-66.597791 0 0-3.059686 0-5.519714 0-7.979742 0-17.312294 0.173962-34.626635-0.109494-51.933813-0.081864-5.003967 1.210571-6.706749 6.441713-6.628978 19.817348 0.290619 39.641859 0.116657 59.867506 0.116657 0-21.657252 0-43.042305 0-65.045435-1.871627 0-3.662413 0-5.454222 0-18.320251 0-36.641525-0.107447-54.959729 0.078795-4.261047 0.042979-5.931083-1.032516-5.880941-5.624091 0.221034-19.97903 0.095167-39.962154 0.095167-60.564377 22.187325 0 44.093241 0 66.303079 0 0.13303-1.542122 0.286526-2.496867 0.286526-3.451612 0.01535-19.328207-0.063445-38.658462 0.078795-57.985646 0.028653-3.841491-1.003863-5.211698-5.109368-5.160533-18.317181 0.226151-36.639478 0.098237-54.959729 0.098237-1.981121 0-3.963265 0-6.27082 0 0-21.797445 0-43.037189 0-64.73435 2.068102-0.110517 4.02671-0.303922 5.984295-0.306992 18.488073-0.023536 36.977169-0.019443 55.465243-0.008186 2.372024 0.001023 4.837168 0.424672 4.828982-3.269463-0.047072-20.808932-0.022513-41.617863-0.022513-63.039755-22.278399 0-44.187385 0-66.585511 0 0-4.759397 0-8.919137 0-13.077853 0-15.798824 0.173962-31.601742-0.104377-47.39545-0.084934-4.801353 1.569752-5.977132 6.109138-5.921873 18.149359 0.220011 36.303834 0.091074 54.456263 0.091074 1.819438 0 3.637854 0 5.8001 0 0-21.663392 0-42.925648 0-64.811098-1.657756-0.074701-3.421936-0.222057-5.186116-0.224104-18.656919-0.017396-37.313837-0.069585-55.969733 0.040932-3.508917 0.020466-5.200442-0.814552-5.169743-4.76349 0.150426-19.663852 0.072655-39.32975 0.088004-58.994626 0.001023-0.642636 0.146333-1.284249 0.296759-2.523473 21.998013 0 43.906999 0 66.285682 0 0-5.439896 0-10.271948 0-15.103999 0-15.126512-0.1361-30.256094 0.083911-45.379537 0.064468-4.423753-0.918929-6.107091-5.812379-6.021134-18.146289 0.317225-36.302811 0.135076-54.454216 0.113587-1.970888-0.002047-3.941775-0.174985-6.152117-0.279363 0-21.511943 0-42.62582 0-64.25135 222.195591 0 444.407556 0 667.001213 0C896.064212 368.053564 896.064212 652.730185 896.064212 937.781336z" p-id="3807" fill="#eeeeee"></path><path d="M795.650245 406.435733c0-84.35113-0.046049-168.70226 0.112564-253.052366 0.010233-5.143137-1.798972-5.957689-6.40078-5.953595-129.047098 0.115634-258.093173 0.093121-387.140271 0.093121-1.804089 0-3.607154 0-5.822612 0 0 88.125083 0 175.735443 0 263.655865 133.175115 0 266.008446 0 399.2511 0C795.650245 409.395134 795.650245 407.915433 795.650245 406.435733zM728.711693 344.824513c-88.537476 0-177.00025 0-265.919419 0 0-43.747363 0-87.055728 0-130.682341 88.645946 0 177.11486 0 265.919419 0C728.711693 257.623475 728.711693 301.046451 728.711693 344.824513z" p-id="3808" fill="#eeeeee"></path></svg>