<?xml version="1.0" standalone="no"?><!DOCTYPE svg PUBLIC "-//W3C//DTD SVG 1.1//EN" "http://www.w3.org/Graphics/SVG/1.1/DTD/svg11.dtd"><svg t="1512152401124" class="icon" style="" viewBox="0 0 1024 1024" version="1.1" xmlns="http://www.w3.org/2000/svg" p-id="1866" xmlns:xlink="http://www.w3.org/1999/xlink" width="30" height="30"><defs><style type="text/css"></style></defs><path d="M416 192l179.2 0 0 38.4-179.2 0 0-38.4ZM857.6 192l-70.4 0 0 38.4 70.4 0c38.4 0 64 32 64 64l0 70.4L102.4 364.8 102.4 294.4c0-38.4 32-64 64-64l51.2 0L217.6 192 166.4 192C108.8 192 64 243.2 64 294.4l0 556.8C64 915.2 108.8 960 166.4 960l691.2 0c57.6 0 102.4-44.8 102.4-102.4L960 294.4C960 243.2 915.2 192 857.6 192zM921.6 857.6c0 38.4-32 64-64 64L166.4 921.6c-38.4 0-64-32-64-64l0-448 819.2 0L921.6 857.6zM300.8 102.4l38.4 0 0 166.4-38.4 0 0-166.4ZM672 102.4l38.4 0 0 166.4-38.4 0 0-166.4ZM243.2 486.4l96 0 0 64-96 0 0-64ZM467.2 486.4l96 0 0 64-96 0 0-64ZM678.4 486.4l96 0 0 64-96 0 0-64ZM243.2 633.6l96 0 0 64-96 0 0-64ZM467.2 633.6l96 0 0 64-96 0 0-64ZM678.4 633.6l96 0 0 64-96 0 0-64ZM243.2 774.4l96 0 0 64-96 0 0-64ZM467.2 774.4l96 0 0 64-96 0 0-64ZM678.4 774.4l96 0 0 64-96 0 0-64Z" p-id="1867" fill="#eeeeee"></path></svg>