<?xml version="1.0" standalone="no"?><!DOCTYPE svg PUBLIC "-//W3C//DTD SVG 1.1//EN" "http://www.w3.org/Graphics/SVG/1.1/DTD/svg11.dtd"><svg t="1512152823368" class="icon" style="" viewBox="0 0 1024 1024" version="1.1" xmlns="http://www.w3.org/2000/svg" p-id="3997" xmlns:xlink="http://www.w3.org/1999/xlink" width="20" height="20"><defs><style type="text/css"></style></defs><path d="M982.016 331.776c-22.016-25.088-157.184-184.832-208.896-240.128-15.872-17.408-27.648-29.184-52.224-30.208-24.576-1.024-417.28 0-417.28 0-13.312 0-30.72 3.072-52.736 29.184-51.712 60.416-168.448 194.56-207.872 241.152-26.624 30.72-30.208 74.752 0 120.32 64 74.752 240.128 276.992 417.28 480.768 25.088 29.184 40.96 30.208 52.224 30.208 10.752 0 26.624-0.512 52.224-30.208 175.104-201.728 343.552-394.752 417.28-480.768 25.088-30.208 29.696-84.48 0-120.32z m-187.904 34.816c0 6.144-4.608 10.752-9.728 10.752h-9.216c-14.336 0-13.312 2.56-19.968 11.264-49.664 67.072-247.296 332.8-247.296 332.8 0-0.512 0-1.024-0.512-1.024v1.024s-198.144-265.216-247.296-332.8c-7.168-8.192-5.632-11.264-19.968-11.264H230.4c-5.632 0-9.728-5.12-9.728-10.752v-54.784c0-6.144 4.608-10.752 9.728-10.752h98.816c5.632 0 13.312 0.512 19.968 10.752l158.208 222.72v1.024c0-0.512 0-0.512 0.512-1.024L665.6 311.296c6.656-10.24 14.336-10.752 19.968-10.752h98.816c5.632 0 9.728 5.12 9.728 11.264v54.784z" fill="#eeeeee" p-id="3998"></path></svg>