<?xml version="1.0" standalone="no"?><!DOCTYPE svg PUBLIC "-//W3C//DTD SVG 1.1//EN" "http://www.w3.org/Graphics/SVG/1.1/DTD/svg11.dtd"><svg t="1512153121304" class="icon" style="" viewBox="0 0 1024 1024" version="1.1" xmlns="http://www.w3.org/2000/svg" p-id="5807" xmlns:xlink="http://www.w3.org/1999/xlink" width="20" height="20"><defs><style type="text/css"></style></defs><path d="M893.735168 81.784678 129.23641 81.784678c-36.060287 0-65.943898 29.991058-65.943898 66.190515l0 553.301661c0 37.232996 21.438265 63.322188 58.531068 63.322188L453.472002 764.599042l0 136.562259L336.420099 901.161301c-13.395078 0-20.529569 6.101975-19.507286 19.509333 1.168616 15.384385 6.334265 19.875676 19.507286 19.509333l351.161848 0c13.395078 0 19.511379-6.065136 19.511379-19.509333 0-13.44522-6.116301-19.509333-19.511379-19.509333L570.527998 901.161301 570.527998 764.599042l312.141136 0c37.09485 0 78.037331-25.055652 78.037331-62.288648l0-554.335201C960.706465 111.775736 930.828994 81.784678 893.735168 81.784678zM531.509333 901.161301l-39.017642 0L492.491691 764.599042l39.017642 0L531.509333 901.161301zM921.688823 706.072067c-0.128937 0.333598-0.837064 22.897499-18.584264 19.302625l-0.923022 0.206708L121.82358 725.5814c-18.594497 0-18.527982-2.064009-18.527982-20.857027l-0.983397-76.68759 819.376623 0L921.688823 706.072067zM921.688823 608.526427 102.3122 608.526427 102.3122 140.311653c0-10.343579 10.234085-19.509333 19.511379-19.509333L902.181537 120.80232c10.3006 0 19.507286 9.165754 19.507286 19.509333L921.688823 608.526427zM648.561235 218.34796 648.561235 296.383244 316.912813 296.383244l0 39.017642L746.106876 335.400886 648.561235 218.34796zM316.912813 413.437194l97.544617 117.053949 0-78.036307 331.652516 0-0.004093-39.017642L316.912813 413.437194z" p-id="5808" fill="#eeeeee"></path></svg>