<?xml version="1.0" standalone="no"?><!DOCTYPE svg PUBLIC "-//W3C//DTD SVG 1.1//EN" "http://www.w3.org/Graphics/SVG/1.1/DTD/svg11.dtd"><svg t="1512153304404" class="icon" style="" viewBox="0 0 1024 1024" version="1.1" xmlns="http://www.w3.org/2000/svg" p-id="7613" xmlns:xlink="http://www.w3.org/1999/xlink" width="20" height="20"><defs><style type="text/css"></style></defs><path d="M874.974895 959.26258 149.024082 959.26258c-22.849404 0-41.36306-18.807345-41.36306-41.951461L107.661022 106.687858c0-23.143093 18.513656-41.951461 41.36306-41.951461l179.191148 0 367.567493 0 179.192172 0c22.812565 0 41.364083 18.808368 41.364083 41.951461l0 810.623261C916.338978 940.455235 897.786437 959.26258 874.974895 959.26258L874.974895 959.26258zM695.782723 102.021581 328.21523 102.021581l0 111.820762 367.567493 0L695.782723 102.021581 695.782723 102.021581zM695.782723 251.091712 328.21523 251.091712c-21.195741 0-38.056758-16.420995-40.407292-37.249369l-33.097816 0 0 596.314291 514.578732 0L769.288854 213.842343 736.191038 213.842343C733.840504 234.670717 716.978465 251.091712 695.782723 251.091712L695.782723 251.091712zM842.794985 139.27095 732.554208 139.27095l0 37.286208 73.507154 0 0 670.885684L217.937614 847.442842 217.937614 176.557158l73.507154 0 0-37.286208L181.202968 139.27095 181.202968 884.692211l661.592017 0L842.794985 139.27095 842.794985 139.27095zM328.21523 549.267788l0-37.286208 367.567493 0 0 37.286208L328.21523 549.267788 328.21523 549.267788zM328.21523 474.732212l0-37.286208 367.567493 0 0 37.286208L328.21523 474.732212 328.21523 474.732212zM328.21523 400.197658l0-37.286208 367.567493 0 0 37.286208L328.21523 400.197658 328.21523 400.197658zM328.21523 623.802342l0-37.249369 367.567493 0 0 37.249369L328.21523 623.802342 328.21523 623.802342zM328.21523 698.335872l0-37.248346 367.567493 0 0 37.248346L328.21523 698.335872 328.21523 698.335872z" p-id="7614" fill="#eeeeee"></path></svg>