<?xml version="1.0" standalone="no"?><!DOCTYPE svg PUBLIC "-//W3C//DTD SVG 1.1//EN" "http://www.w3.org/Graphics/SVG/1.1/DTD/svg11.dtd"><svg t="1508720871104" class="icon" style="" viewBox="0 0 1024 1024" version="1.1" xmlns="http://www.w3.org/2000/svg" p-id="2591" xmlns:xlink="http://www.w3.org/1999/xlink" width="200" height="200"><defs><style type="text/css"></style></defs><path d="M512 0C229.248 0 0 229.248 0 512s229.248 512 512 512 512-229.248 512-512S794.752 0 512 0zM274.304 272.32c7.552-5.824 17.984-5.568 25.216 0l248.32 188.928c2.368 1.792 3.84 3.648 5.44 5.44C565.504 477.952 573.44 493.952 573.44 512c0 33.984-27.52 61.44-61.44 61.44-19.328 0-36.416-9.088-47.68-23.104C463.424 549.376 462.336 548.544 461.504 547.52L270.528 301.248C263.552 292.224 265.216 279.296 274.304 272.32zM512 982.4c-260.16 0-471.04-210.88-471.04-471.04 0-130.048 52.736-247.808 137.984-333.056L208 207.424C130.176 285.312 81.92 392.832 81.92 511.36c0 237.12 192.96 430.08 430.08 430.08s430.08-192.96 430.08-430.08c0-230.208-182.016-418.24-409.6-429.056l0 162.56L491.52 244.864l0-162.56 0-21.76L491.52 40.832C498.304 40.576 505.152 40.32 512 40.32c260.16 0 471.04 210.88 471.04 471.04S772.16 982.4 512 982.4z" p-id="2592" fill="#707070"></path></svg>