<?xml version="1.0" standalone="no"?><!DOCTYPE svg PUBLIC "-//W3C//DTD SVG 1.1//EN" "http://www.w3.org/Graphics/SVG/1.1/DTD/svg11.dtd"><svg t="1508618531657" class="icon" style="" viewBox="0 0 1024 1024" version="1.1" xmlns="http://www.w3.org/2000/svg" p-id="992" xmlns:xlink="http://www.w3.org/1999/xlink" width="200" height="200"><defs><style type="text/css"></style></defs><path d="M906.515 846.382h-789.03c-28.798 0-56.411-27.279-56.411-55.73V233.353c0-34.548 22.324-55.735 56.411-55.735h789.03c27.032 0 56.411 27.284 56.411 55.735v557.299c0 25.845-27.616 55.73-56.411 55.73z m-27.492-585.165H144.809v501.571h734.214V261.217zM344.889 622.591l169.229-193.893 55.528 56.886 111.941-140.775 166.878 253.109v137.003h-674.57l112.82-166.611 58.174 54.281z m-30.821-139.619c-45.773 0-82.882-36.656-82.882-81.882 0-45.221 37.109-83.622 82.882-83.622s84.643 38.401 84.643 83.622c0.001 45.225-38.87 81.882-84.643 81.882z" fill="#ffffff" p-id="993"></path></svg>