<?xml version="1.0" standalone="no"?><!DOCTYPE svg PUBLIC "-//W3C//DTD SVG 1.1//EN" "http://www.w3.org/Graphics/SVG/1.1/DTD/svg11.dtd"><svg t="1512153445933" class="icon" style="" viewBox="0 0 1184 1024" version="1.1" xmlns="http://www.w3.org/2000/svg" p-id="6119" xmlns:xlink="http://www.w3.org/1999/xlink" width="23.125" height="20"><defs><style type="text/css"></style></defs><path d="M240 0l-192 0c-27.808 0-48 20.192-48 48l0 928c0 27.808 20.192 48 48 48l1088 0c27.808 0 48-20.192 48-48l0-928c0-27.808-20.192-48-48-48l-896 0zM32 976l0-928c0-10.016 5.984-16 16-16l176 0 0 960-176 0c-10.016 0-16-5.984-16-16zM256 992l0-960 672 0 0 960-672 0zM1152 48l0 928c0 10.016-5.984 16-16 16l-176 0 0-960 176 0c10.016 0 16 5.984 16 16zM472.864 322.688c-4.896-3.264-11.232-3.584-16.448-0.8-5.152 2.784-8.416 8.192-8.416 14.112l0 384c0 5.92 3.264 11.328 8.448 14.112 2.368 1.248 4.96 1.888 7.552 1.888 3.104 0 6.176-0.896 8.864-2.688l288-192c4.448-2.976 7.136-7.968 7.136-13.312s-2.688-10.336-7.136-13.312l-288-192zM480 690.112l0-324.224 243.168 162.112-243.168 162.112zM160 256l-64 0c-8.832 0-16 7.168-16 16s7.168 16 16 16l64 0c8.832 0 16-7.168 16-16s-7.168-16-16-16zM96 160l64 0c8.832 0 16-7.168 16-16s-7.168-16-16-16l-64 0c-8.832 0-16 7.168-16 16s7.168 16 16 16zM160 384l-64 0c-8.832 0-16 7.168-16 16s7.168 16 16 16l64 0c8.832 0 16-7.168 16-16s-7.168-16-16-16zM160 512l-64 0c-8.832 0-16 7.168-16 16s7.168 16 16 16l64 0c8.832 0 16-7.168 16-16s-7.168-16-16-16zM160 640l-64 0c-8.832 0-16 7.168-16 16s7.168 16 16 16l64 0c8.832 0 16-7.168 16-16s-7.168-16-16-16zM160 768l-64 0c-8.832 0-16 7.168-16 16s7.168 16 16 16l64 0c8.832 0 16-7.168 16-16s-7.168-16-16-16zM160 896l-64 0c-8.832 0-16 7.168-16 16s7.168 16 16 16l64 0c8.832 0 16-7.168 16-16s-7.168-16-16-16zM1024 288l64 0c8.832 0 16-7.168 16-16s-7.168-16-16-16l-64 0c-8.832 0-16 7.168-16 16s7.168 16 16 16zM1024 160l64 0c8.832 0 16-7.168 16-16s-7.168-16-16-16l-64 0c-8.832 0-16 7.168-16 16s7.168 16 16 16zM1024 416l64 0c8.832 0 16-7.168 16-16s-7.168-16-16-16l-64 0c-8.832 0-16 7.168-16 16s7.168 16 16 16zM1024 544l64 0c8.832 0 16-7.168 16-16s-7.168-16-16-16l-64 0c-8.832 0-16 7.168-16 16s7.168 16 16 16zM1024 672l64 0c8.832 0 16-7.168 16-16s-7.168-16-16-16l-64 0c-8.832 0-16 7.168-16 16s7.168 16 16 16zM1024 800l64 0c8.832 0 16-7.168 16-16s-7.168-16-16-16l-64 0c-8.832 0-16 7.168-16 16s7.168 16 16 16zM1088 896l-64 0c-8.832 0-16 7.168-16 16s7.168 16 16 16l64 0c8.832 0 16-7.168 16-16s-7.168-16-16-16z" p-id="6120" fill="#eeeeee"></path></svg>